<svg width="76" height="64" viewBox="0 0 76 64" fill="none" xmlns="http://www.w3.org/2000/svg">
<mask id="mask0_720_2172" style="mask-type:alpha" maskUnits="userSpaceOnUse" x="8" y="0" width="68" height="64">
<rect x="8.22168" width="67.558" height="63.0541" fill="#D9D9D9"/>
</mask>
<g mask="url(#mask0_720_2172)">
<path d="M112.17 4.8249C119.821 4.90534 127.131 8.00097 132.513 13.4394C137.894 18.8779 140.913 26.22 140.913 33.871C140.913 41.5221 137.894 48.8642 132.513 54.3027C127.131 59.7411 119.821 62.8368 112.17 62.9172L40.2896 62.9172C32.639 62.8368 25.329 59.7411 19.9474 54.3027C14.5659 48.8642 11.5473 41.5221 11.5473 33.871C11.5473 26.22 14.5659 18.8779 19.9474 13.4394C25.329 8.00097 32.639 4.90534 40.2896 4.8249L112.17 4.8249ZM112.17 4.50378L40.2896 4.50378C32.5016 4.50464 25.0329 7.59877 19.5259 13.1057C14.019 18.6127 10.9248 26.0814 10.924 33.8694C10.9248 41.6574 14.019 49.1262 19.5259 54.6331C25.0329 60.1401 32.5016 63.2342 40.2896 63.2351L112.17 63.2351C119.958 63.2342 127.427 60.1401 132.934 54.6331C138.441 49.1262 141.535 41.6574 141.536 33.8694C141.535 26.0814 138.441 18.6127 132.934 13.1057C127.427 7.59877 119.958 4.50464 112.17 4.50378Z" fill="url(#paint0_linear_720_2172)"/>
<path d="M112.251 7.87226C115.729 7.76997 119.193 8.36677 122.437 9.62732C125.68 10.8879 128.638 12.7865 131.135 15.2108C133.631 17.6351 135.616 20.5358 136.972 23.7411C138.327 26.9464 139.025 30.391 139.025 33.871C139.025 37.3511 138.327 40.7957 136.972 44.001C135.616 47.2063 133.631 50.1069 131.135 52.5313C128.638 54.9556 125.68 56.8543 122.437 58.1148C119.193 59.3754 115.729 59.9722 112.251 59.8699L40.2092 59.8699C36.7307 59.9722 33.2671 59.3754 30.0234 58.1148C26.7797 56.8543 23.8219 54.9556 21.3252 52.5313C18.8285 50.1069 16.8438 47.2063 15.4884 44.001C14.1331 40.7957 13.4347 37.3511 13.4347 33.871C13.4347 30.391 14.1331 26.9464 15.4884 23.7411C16.8438 20.5358 18.8285 17.6351 21.3252 15.2108C23.8219 12.7865 26.7797 10.8879 30.0234 9.62732C33.2671 8.36677 36.7307 7.76997 40.2092 7.87226L112.251 7.87226ZM112.251 7.55115L40.2092 7.55115C33.2258 7.55115 26.5284 10.3253 21.5903 15.2634C16.6523 20.2014 13.8781 26.8988 13.8781 33.8823C13.8781 40.8657 16.6523 47.5632 21.5903 52.5012C26.5284 57.4393 33.2258 60.2134 40.2092 60.2134L112.251 60.2134C119.234 60.2134 125.932 57.4393 130.87 52.5012C135.808 47.5632 138.582 40.8657 138.582 33.8823C138.582 26.8988 135.808 20.2014 130.87 15.2634C125.932 10.3253 119.234 7.55115 112.251 7.55115Z" fill="url(#paint1_linear_720_2172)"/>
<path d="M112.334 10.9163C118.423 10.9163 124.263 13.3353 128.569 17.641C132.875 21.9467 135.294 27.7866 135.294 33.8758C135.294 39.965 132.875 45.8049 128.569 50.1106C124.263 54.4164 118.423 56.8353 112.334 56.8353L40.1258 56.8353C34.0366 56.8353 28.1968 54.4164 23.8911 50.1106C19.5853 45.8049 17.1664 39.965 17.1664 33.8758C17.1664 27.7866 19.5853 21.9467 23.8911 17.641C28.1968 13.3353 34.0366 10.9163 40.1258 10.9163L112.334 10.9163ZM112.334 10.5952L40.1258 10.5952C33.9532 10.5952 28.0333 13.0473 23.6686 17.4121C19.3038 21.7768 16.8517 27.6967 16.8517 33.8694C16.8517 40.0421 19.3038 45.9619 23.6686 50.3267C28.0333 54.6915 33.9532 57.1436 40.1258 57.1436L112.334 57.1436C118.507 57.1436 124.427 54.6915 128.792 50.3267C133.156 45.9619 135.608 40.0421 135.608 33.8694C135.608 27.6967 133.156 21.7768 128.792 17.4121C124.427 13.0473 118.507 10.5952 112.334 10.5952Z" fill="url(#paint2_linear_720_2172)"/>
<path d="M112.414 13.9637C117.695 13.9637 122.758 16.0612 126.492 19.7949C130.226 23.5285 132.323 28.5924 132.323 33.8726C132.323 39.1528 130.226 44.2167 126.492 47.9504C122.758 51.684 117.695 53.7815 112.414 53.7815L40.0455 53.7815C34.7653 53.7815 29.7014 51.684 25.9677 47.9504C22.2341 44.2167 20.1365 39.1528 20.1365 33.8726C20.1365 28.5924 22.2341 23.5285 25.9677 19.7949C29.7014 16.0612 34.7653 13.9637 40.0455 13.9637L112.414 13.9637ZM112.414 13.6426L40.0455 13.6426C34.6801 13.6426 29.5346 15.7739 25.7407 19.5678C21.9468 23.3617 19.8154 28.5073 19.8154 33.8726C19.8154 39.2379 21.9468 44.3835 25.7407 48.1774C29.5346 51.9713 34.6801 54.1026 40.0455 54.1026L112.414 54.1026C117.78 54.1026 122.925 51.9713 126.719 48.1774C130.513 44.3835 132.644 39.2379 132.644 33.8726C132.644 28.5073 130.513 23.3617 126.719 19.5678C122.925 15.7739 117.78 13.6426 112.414 13.6426Z" fill="url(#paint3_linear_720_2172)"/>
<path d="M112.495 17.0078C114.748 16.9456 116.991 17.3356 119.09 18.1548C121.19 18.9741 123.104 20.2059 124.72 21.7775C126.335 23.3491 127.619 25.2286 128.496 27.3049C129.373 29.3812 129.825 31.6122 129.825 33.8661C129.825 36.12 129.373 38.351 128.496 40.4273C127.619 42.5036 126.335 44.3831 124.72 45.9547C123.104 47.5263 121.19 48.7581 119.09 49.5774C116.991 50.3966 114.748 50.7867 112.495 50.7245L39.9654 50.7245C37.7124 50.7867 35.4698 50.3966 33.3701 49.5774C31.2703 48.7581 29.3561 47.5263 27.7405 45.9547C26.1249 44.3831 24.8408 42.5036 23.9639 40.4273C23.087 38.351 22.6353 36.12 22.6353 33.8661C22.6353 31.6122 23.087 29.3812 23.9639 27.3049C24.8408 25.2286 26.1249 23.3491 27.7405 21.7775C29.3561 20.2059 31.2703 18.9741 33.3701 18.1548C35.4698 17.3356 37.7124 16.9456 39.9654 17.0078L112.495 17.0078ZM112.495 16.6866L39.9654 16.6866C35.408 16.6866 31.0372 18.4968 27.8143 21.7191C24.5914 24.9414 22.7804 29.3119 22.7796 33.8693C22.7804 38.4267 24.5914 42.7972 27.8143 46.0195C31.0372 49.2418 35.408 51.052 39.9654 51.052L112.495 51.052C117.052 51.052 121.423 49.2418 124.646 46.0195C127.869 42.7972 129.68 38.4267 129.681 33.8693C129.68 29.3119 127.869 24.9414 124.646 21.7191C121.423 18.4968 117.052 16.6866 112.495 16.6866Z" fill="url(#paint4_linear_720_2172)"/>
<path d="M112.572 20.0521C116.237 20.0521 119.752 21.508 122.343 24.0996C124.935 26.6911 126.391 30.206 126.391 33.8711C126.391 37.5361 124.935 41.0511 122.343 43.6426C119.752 46.2342 116.237 47.6901 112.572 47.6901L39.8818 47.6901C36.2168 47.6901 32.7019 46.2342 30.1104 43.6426C27.5188 41.0511 26.0628 37.5361 26.0628 33.8711C26.0628 30.206 27.5188 26.6911 30.1104 24.0996C32.7019 21.508 36.2168 20.0521 39.8818 20.0521L112.572 20.0521ZM112.572 19.731L39.8818 19.731C36.1346 19.731 32.5409 21.2195 29.8912 23.8692C27.2416 26.5189 25.7529 30.1126 25.7529 33.8599C25.7529 37.6071 27.2416 41.2008 29.8912 43.8505C32.5409 46.5002 36.1346 47.9888 39.8818 47.9888L112.572 47.9888C116.319 47.9888 119.913 46.5002 122.563 43.8505C125.212 41.2008 126.701 37.6071 126.701 33.8599C126.701 30.1126 125.212 26.5189 122.563 23.8692C119.913 21.2195 116.319 19.731 112.572 19.731Z" fill="url(#paint5_linear_720_2172)"/>
<path d="M112.659 23.0994C114.089 23.0747 115.51 23.3351 116.838 23.8653C118.167 24.3956 119.376 25.1851 120.396 26.1878C121.416 27.1905 122.227 28.3863 122.78 29.7054C123.333 31.0246 123.618 32.4407 123.618 33.8711C123.618 35.3015 123.333 36.7176 122.78 38.0368C122.227 39.356 121.416 40.5518 120.396 41.5544C119.376 42.5571 118.167 43.3466 116.838 43.8769C115.51 44.4071 114.089 44.6675 112.659 44.6428L39.8015 44.6428C38.3713 44.6675 36.9505 44.4071 35.622 43.8769C34.2935 43.3466 33.0838 42.5571 32.0637 41.5544C31.0435 40.5518 30.2333 39.356 29.6802 38.0368C29.1271 36.7176 28.8422 35.3015 28.8422 33.8711C28.8422 32.4407 29.1271 31.0246 29.6802 29.7054C30.2333 28.3863 31.0435 27.1905 32.0637 26.1878C33.0838 25.1851 34.2935 24.3956 35.622 23.8653C36.9505 23.3351 38.3713 23.0747 39.8015 23.0994L112.659 23.0994ZM112.659 22.7783L39.8015 22.7783C36.8596 22.7783 34.0382 23.9467 31.9577 26.0266C29.8772 28.1065 28.708 30.9276 28.7072 33.8695C28.708 36.8113 29.8772 39.6324 31.9577 41.7123C34.0382 43.7922 36.8596 44.9607 39.8015 44.9607L112.659 44.9607C115.6 44.9607 118.422 43.7922 120.502 41.7123C122.583 39.6324 123.752 36.8113 123.753 33.8695C123.752 30.9276 122.583 28.1065 120.502 26.0266C118.422 23.9467 115.6 22.7783 112.659 22.7783Z" fill="url(#paint6_linear_720_2172)"/>
<path d="M112.742 26.1435C114.764 26.1847 116.69 27.017 118.105 28.4617C119.521 29.9064 120.314 31.8484 120.314 33.871C120.314 35.8936 119.521 37.8357 118.105 39.2804C116.69 40.7251 114.764 41.5574 112.742 41.5986L39.7182 41.5986C37.696 41.5574 35.7705 40.7251 34.355 39.2804C32.9394 37.8357 32.1465 35.8936 32.1465 33.871C32.1465 31.8484 32.9394 29.9064 34.355 28.4617C35.7705 27.017 37.696 26.1847 39.7182 26.1435L112.742 26.1435ZM112.742 25.8224L39.7182 25.8224C38.6612 25.8224 37.6145 26.0306 36.6379 26.4353C35.6614 26.8399 34.7742 27.4329 34.027 28.1804C33.2797 28.928 32.6869 29.8155 32.2827 30.7922C31.8785 31.7689 31.6707 32.8156 31.6711 33.8726C31.6711 36.0068 32.5189 38.0536 34.0281 39.5628C35.5372 41.0719 37.584 41.9197 39.7182 41.9197L112.742 41.9197C114.876 41.9197 116.923 41.0719 118.432 39.5628C119.941 38.0536 120.789 36.0068 120.789 33.8726C120.79 32.8156 120.582 31.7689 120.178 30.7922C119.773 29.8155 119.181 28.928 118.433 28.1804C117.686 27.4329 116.799 26.8399 115.822 26.4353C114.846 26.0306 113.799 25.8224 112.742 25.8224Z" fill="url(#paint7_linear_720_2172)"/>
<path d="M112.822 29.1909C113.447 29.1745 114.069 29.2834 114.651 29.5113C115.233 29.7391 115.764 30.0812 116.212 30.5175C116.66 30.9537 117.016 31.4752 117.259 32.0511C117.502 32.6271 117.627 33.2459 117.627 33.8711C117.627 34.4962 117.502 35.115 117.259 35.691C117.016 36.267 116.66 36.7884 116.212 37.2247C115.764 37.6609 115.233 38.003 114.651 38.2308C114.069 38.4587 113.447 38.5677 112.822 38.5513L39.6379 38.5513C39.013 38.5677 38.391 38.4587 37.8089 38.2308C37.2268 38.003 36.6961 37.6609 36.2483 37.2247C35.8006 36.7884 35.4447 36.267 35.2017 35.691C34.9587 35.115 34.8334 34.4962 34.8334 33.8711C34.8334 33.2459 34.9587 32.6271 35.2017 32.0511C35.4447 31.4752 35.8006 30.9537 36.2483 30.5175C36.6961 30.0812 37.2268 29.7391 37.8089 29.5113C38.391 29.2834 39.013 29.1745 39.6379 29.1909L112.822 29.1909ZM112.822 28.8698L39.6379 28.8698C38.9704 28.8529 38.3063 28.9697 37.6847 29.2135C37.0631 29.4572 36.4967 29.8229 36.0186 30.2889C35.5406 30.755 35.1607 31.3121 34.9013 31.9273C34.6419 32.5425 34.5082 33.2034 34.5082 33.8711C34.5082 34.5387 34.6419 35.1997 34.9013 35.8149C35.1607 36.4301 35.5406 36.9871 36.0186 37.4532C36.4967 37.9193 37.0631 38.285 37.6847 38.5287C38.3063 38.7724 38.9704 38.8893 39.6379 38.8724L112.822 38.8724C113.49 38.8893 114.154 38.7724 114.775 38.5287C115.397 38.285 115.964 37.9193 116.442 37.4532C116.92 36.9871 117.3 36.4301 117.559 35.8149C117.818 35.1997 117.952 34.5387 117.952 33.8711C117.952 33.2034 117.818 32.5425 117.559 31.9273C117.3 31.3121 116.92 30.755 116.442 30.2889C115.964 29.8229 115.397 29.4572 114.775 29.2135C114.154 28.9697 113.49 28.8529 112.822 28.8698Z" fill="url(#paint8_linear_720_2172)"/>
<path d="M112.893 32.2349C113.314 32.2536 113.712 32.4341 114.004 32.7389C114.295 33.0437 114.458 33.4492 114.458 33.871C114.458 34.2928 114.295 34.6983 114.004 35.0031C113.712 35.3078 113.314 35.4884 112.893 35.5071L39.5544 35.5071C39.133 35.4884 38.7351 35.3078 38.4435 35.0031C38.1519 34.6983 37.9892 34.2928 37.9892 33.871C37.9892 33.4492 38.1519 33.0437 38.4435 32.7389C38.7351 32.4341 39.133 32.2536 39.5544 32.2349L112.893 32.2349ZM112.893 31.9138L39.5544 31.9138C39.049 31.9343 38.5711 32.1495 38.2208 32.5143C37.8704 32.8791 37.6748 33.3652 37.6748 33.871C37.6748 34.3768 37.8704 34.8629 38.2208 35.2278C38.5711 35.5926 39.049 35.8077 39.5544 35.8282L112.893 35.8282C113.398 35.8077 113.876 35.5926 114.227 35.2278C114.577 34.8629 114.772 34.3768 114.772 33.871C114.772 33.3652 114.577 32.8791 114.227 32.5143C113.876 32.1495 113.398 31.9343 112.893 31.9138Z" fill="url(#paint9_linear_720_2172)"/>
</g>
<circle cx="12.6108" cy="12.6108" r="12.6108" fill="#BCD2FE"/>
<defs>
<linearGradient id="paint0_linear_720_2172" x1="10.924" y1="33.8694" x2="141.536" y2="33.8694" gradientUnits="userSpaceOnUse">
<stop stop-color="#4F8AFF" stop-opacity="0.11"/>
<stop offset="0.595" stop-color="#4F8AFF"/>
<stop offset="1" stop-color="#4F8AFF" stop-opacity="0.28"/>
</linearGradient>
<linearGradient id="paint1_linear_720_2172" x1="13.4347" y1="33.8823" x2="139.025" y2="33.8823" gradientUnits="userSpaceOnUse">
<stop stop-color="#4F8AFF" stop-opacity="0.11"/>
<stop offset="0.595" stop-color="#4F8AFF"/>
<stop offset="1" stop-color="#4F8AFF" stop-opacity="0.28"/>
</linearGradient>
<linearGradient id="paint2_linear_720_2172" x1="16.8517" y1="33.8694" x2="135.608" y2="33.8694" gradientUnits="userSpaceOnUse">
<stop stop-color="#4F8AFF" stop-opacity="0.11"/>
<stop offset="0.595" stop-color="#4F8AFF"/>
<stop offset="1" stop-color="#4F8AFF" stop-opacity="0.28"/>
</linearGradient>
<linearGradient id="paint3_linear_720_2172" x1="19.8154" y1="33.8726" x2="132.644" y2="33.8726" gradientUnits="userSpaceOnUse">
<stop stop-color="#4F8AFF" stop-opacity="0.11"/>
<stop offset="0.595" stop-color="#4F8AFF"/>
<stop offset="1" stop-color="#4F8AFF" stop-opacity="0.28"/>
</linearGradient>
<linearGradient id="paint4_linear_720_2172" x1="22.6353" y1="33.8693" x2="129.825" y2="33.8693" gradientUnits="userSpaceOnUse">
<stop stop-color="#4F8AFF" stop-opacity="0.11"/>
<stop offset="0.595" stop-color="#4F8AFF"/>
<stop offset="1" stop-color="#4F8AFF" stop-opacity="0.28"/>
</linearGradient>
<linearGradient id="paint5_linear_720_2172" x1="25.7529" y1="33.8599" x2="126.701" y2="33.8599" gradientUnits="userSpaceOnUse">
<stop stop-color="#4F8AFF" stop-opacity="0.11"/>
<stop offset="0.595" stop-color="#4F8AFF"/>
<stop offset="1" stop-color="#4F8AFF" stop-opacity="0.28"/>
</linearGradient>
<linearGradient id="paint6_linear_720_2172" x1="28.7072" y1="33.8695" x2="123.753" y2="33.8695" gradientUnits="userSpaceOnUse">
<stop stop-color="#4F8AFF" stop-opacity="0.11"/>
<stop offset="0.595" stop-color="#4F8AFF"/>
<stop offset="1" stop-color="#4F8AFF" stop-opacity="0.28"/>
</linearGradient>
<linearGradient id="paint7_linear_720_2172" x1="31.6711" y1="33.871" x2="120.789" y2="33.871" gradientUnits="userSpaceOnUse">
<stop stop-color="#4F8AFF" stop-opacity="0.11"/>
<stop offset="0.595" stop-color="#4F8AFF"/>
<stop offset="1" stop-color="#4F8AFF" stop-opacity="0.28"/>
</linearGradient>
<linearGradient id="paint8_linear_720_2172" x1="34.5082" y1="33.8711" x2="117.952" y2="33.8711" gradientUnits="userSpaceOnUse">
<stop stop-color="#4F8AFF" stop-opacity="0.11"/>
<stop offset="0.595" stop-color="#4F8AFF"/>
<stop offset="1" stop-color="#4F8AFF" stop-opacity="0.28"/>
</linearGradient>
<linearGradient id="paint9_linear_720_2172" x1="37.6748" y1="33.871" x2="114.772" y2="33.871" gradientUnits="userSpaceOnUse">
<stop stop-color="#4F8AFF" stop-opacity="0.11"/>
<stop offset="0.595" stop-color="#4F8AFF"/>
<stop offset="1" stop-color="#4F8AFF" stop-opacity="0.28"/>
</linearGradient>
</defs>
</svg>
